<svg width="65" height="24" viewBox="0 0 65 24" fill="none" xmlns="http://www.w3.org/2000/svg">
<g opacity="0.5">
<path d="M20.8111 0.463786C21.2359 0.661339 21.6226 0.94208 21.9516 1.29165C22.2778 1.64331 22.5395 2.05771 22.7229 2.51322C22.917 2.98647 23.0162 3.49819 23.0143 4.01525V23.2503C23.0165 23.3329 23.0027 23.4152 22.9738 23.4918C22.9448 23.5684 22.9013 23.6377 22.846 23.6952C22.7918 23.7547 22.7269 23.8017 22.6552 23.8333C22.5834 23.8648 22.5065 23.8802 22.429 23.8786H18.1431C18.0677 23.8814 17.9927 23.8664 17.9232 23.8347C17.8538 23.803 17.7917 23.7554 17.7412 23.6952C17.6377 23.5743 17.5826 23.4145 17.5879 23.2503V5.76536H14.1336V23.2503C14.1389 23.4145 14.0839 23.5743 13.9804 23.6952C13.9299 23.7554 13.8677 23.803 13.7983 23.8347C13.7289 23.8664 13.6538 23.8814 13.5784 23.8786H9.69453C9.61704 23.8802 9.54006 23.8648 9.46834 23.8333C9.39662 23.8017 9.33168 23.7547 9.2775 23.6952C9.2219 23.6378 9.17801 23.5686 9.1486 23.492C9.1192 23.4154 9.10492 23.3331 9.10667 23.2503V5.76536H5.65489V23.2503C5.66577 23.3358 5.65804 23.4228 5.63231 23.5046C5.60657 23.5863 5.56354 23.6606 5.50657 23.7214C5.44961 23.7823 5.38027 23.8282 5.30401 23.8555C5.22774 23.8827 5.14662 23.8907 5.06703 23.8786H0.813839C0.73424 23.8907 0.653123 23.8827 0.576858 23.8555C0.500592 23.8282 0.431256 23.7823 0.374293 23.7214C0.317329 23.6606 0.274291 23.5863 0.248557 23.5046C0.222824 23.4228 0.215096 23.3358 0.225981 23.2503V0.779292C0.215096 0.693799 0.222824 0.606762 0.248557 0.525016C0.274291 0.443269 0.317329 0.36904 0.374293 0.308157C0.431256 0.247274 0.500592 0.201394 0.576858 0.174122C0.653123 0.14685 0.73424 0.138928 0.813839 0.150977H19.4043C19.8884 0.148578 20.3677 0.255139 20.8111 0.463786Z" fill="#183249"/>
<path d="M20.8111 0.463786C21.2359 0.661339 21.6226 0.94208 21.9516 1.29165C22.2778 1.64331 22.5395 2.05771 22.7229 2.51322C22.917 2.98647 23.0162 3.49819 23.0143 4.01525V5.7303L17.5879 5.76536H5.65489L0.225981 5.7303V0.779291C0.215096 0.693799 0.222824 0.606762 0.248557 0.525016C0.274291 0.443269 0.317329 0.36904 0.374293 0.308157C0.431256 0.247274 0.500592 0.201394 0.576858 0.174122C0.653123 0.14685 0.73424 0.138928 0.813839 0.150977H19.4043C19.8884 0.148578 20.3677 0.255139 20.8111 0.463786Z" fill="#183249"/>
<path d="M41.703 18.1185C41.782 18.1156 41.8607 18.1307 41.9338 18.1628C42.007 18.1949 42.073 18.2432 42.1276 18.3046C42.2357 18.4286 42.2943 18.5932 42.2909 18.763V23.2367C42.2943 23.4066 42.2357 23.5711 42.1276 23.6952C42.073 23.7566 42.007 23.8049 41.9338 23.837C41.8607 23.869 41.782 23.8841 41.703 23.8812H27.0241C26.9414 23.8953 26.8568 23.8885 26.7769 23.8615C26.697 23.8344 26.6241 23.7878 26.564 23.7253C26.5038 23.6627 26.4579 23.5861 26.4301 23.5013C26.4023 23.4165 26.3932 23.3259 26.4036 23.2367V0.808869C26.3932 0.719669 26.4023 0.629099 26.4301 0.544315C26.4579 0.459531 26.5038 0.382857 26.564 0.320347C26.6241 0.257837 26.697 0.211206 26.7769 0.184137C26.8568 0.157068 26.9414 0.150302 27.0241 0.164375H31.5461C31.628 0.152154 31.7115 0.160307 31.7901 0.188207C31.8686 0.216106 31.9402 0.263005 31.9992 0.325285C32.0581 0.387564 32.103 0.463559 32.1303 0.547405C32.1576 0.631251 32.1666 0.720707 32.1566 0.808869V17.528C32.1534 17.6113 32.1679 17.6944 32.1987 17.7709C32.2296 17.8475 32.2762 17.9156 32.3349 17.9702C32.4572 18.0844 32.6151 18.1451 32.7771 18.1401L41.703 18.1185Z" fill="#183249"/>
<path d="M32.1063 23.8814H27.0215C26.939 23.895 26.8547 23.8879 26.7751 23.8606C26.6956 23.8333 26.623 23.7866 26.5632 23.7242C26.5033 23.6617 26.4577 23.5852 26.43 23.5007C26.4023 23.4161 26.3932 23.3259 26.4035 23.2369V0.809051C26.3932 0.720112 26.4023 0.629823 26.43 0.545276C26.4577 0.460729 26.5033 0.384226 26.5632 0.321775C26.623 0.259324 26.6956 0.212625 26.7751 0.185346C26.8547 0.158067 26.939 0.150951 27.0215 0.164557H31.5209C31.6034 0.150951 31.6878 0.158067 31.7673 0.185346C31.8468 0.212625 31.9194 0.259324 31.9793 0.321775C32.0392 0.384226 32.0848 0.460729 32.1124 0.545276C32.1401 0.629823 32.1492 0.720112 32.1389 0.809051V17.5282C32.1389 17.69 32.1063 23.8814 32.1063 23.8814Z" fill="#183249"/>
<path d="M64.2698 0.150923C64.3513 0.148959 64.4324 0.164396 64.5083 0.196338C64.5842 0.228279 64.6534 0.276089 64.712 0.33699C64.7704 0.396052 64.8167 0.467592 64.8479 0.547008C64.879 0.626425 64.8944 0.71196 64.8929 0.798114V23.3015C64.8946 23.3873 64.8794 23.4725 64.8482 23.5515C64.8171 23.6306 64.7706 23.7016 64.712 23.7599C64.6539 23.8217 64.5848 23.8702 64.5088 23.9027C64.4329 23.9351 64.3516 23.9507 64.2698 23.9487H59.7026C59.6205 23.951 59.5388 23.9354 59.4624 23.903C59.3859 23.8705 59.3164 23.8219 59.258 23.7599C59.1996 23.7014 59.1536 23.6303 59.1228 23.5513C59.0921 23.4723 59.0773 23.3871 59.0796 23.3015V15.4489C59.0824 15.3668 59.0691 15.285 59.0405 15.2088C59.012 15.1326 58.9688 15.0638 58.9138 15.0067C58.8566 14.9494 58.7894 14.9049 58.7161 14.8757C58.6428 14.8466 58.5648 14.8333 58.4867 14.8368H52.0831C51.9203 14.8317 51.7616 14.8923 51.6384 15.0067C51.5795 15.0613 51.5326 15.1293 51.5013 15.2058C51.47 15.2823 51.4551 15.3654 51.4575 15.4489V23.3015C51.4679 23.391 51.4587 23.482 51.4308 23.5671C51.4028 23.6522 51.3568 23.7291 51.2964 23.7919C51.236 23.8546 51.1628 23.9015 51.0826 23.9287C51.0025 23.9559 50.9175 23.9627 50.8345 23.9487H46.2999C46.2168 23.9633 46.1316 23.9569 46.0512 23.9299C45.9708 23.9029 45.8974 23.8561 45.8369 23.7932C45.7763 23.7303 45.7303 23.6531 45.7026 23.5677C45.6748 23.4823 45.666 23.3912 45.6769 23.3015V0.808901C45.666 0.71923 45.6748 0.628063 45.7026 0.542688C45.7303 0.457312 45.7763 0.380096 45.8369 0.317208C45.8974 0.25432 45.9708 0.207505 46.0512 0.180505C46.1316 0.153505 46.2168 0.147068 46.2999 0.161709H50.8345C50.9175 0.147651 51.0025 0.154497 51.0826 0.181708C51.1628 0.208918 51.236 0.255749 51.2964 0.318505C51.3568 0.381261 51.4028 0.458226 51.4308 0.54333C51.4587 0.628433 51.4679 0.719347 51.4575 0.808901V8.4107C51.4575 8.84216 51.666 9.05789 52.0831 9.05789H58.4867C58.5661 9.06099 58.6452 9.04601 58.7188 9.01394C58.7924 8.98187 58.8589 8.93344 58.9138 8.87182C58.9684 8.81054 59.0112 8.73823 59.0397 8.65908C59.0682 8.57993 59.0817 8.49551 59.0796 8.4107V0.808901C59.0776 0.722923 59.0925 0.637459 59.1232 0.55803C59.1539 0.4786 59.1998 0.406973 59.258 0.347777C59.3169 0.286671 59.3865 0.238753 59.4629 0.20681C59.5392 0.174866 59.6207 0.159535 59.7026 0.161709L64.2698 0.150923Z" fill="#183249"/>
<path d="M51.4575 15.4489V23.3015C51.4679 23.391 51.4587 23.4819 51.4308 23.567C51.4028 23.6522 51.3568 23.7291 51.2964 23.7919C51.236 23.8546 51.1628 23.9015 51.0826 23.9287C51.0025 23.9559 50.9175 23.9627 50.8345 23.9487H46.2999C46.2168 23.9633 46.1316 23.9569 46.0512 23.9299C45.9708 23.9029 45.8974 23.8561 45.8369 23.7932C45.7763 23.7303 45.7303 23.6531 45.7026 23.5677C45.6748 23.4823 45.666 23.3911 45.6769 23.3015V0.808893C45.666 0.719223 45.6748 0.628056 45.7026 0.542681C45.7303 0.457305 45.7763 0.380089 45.8369 0.317201C45.8974 0.254313 45.9708 0.207498 46.0512 0.180498C46.1316 0.153498 46.2168 0.147061 46.2999 0.161702H50.8345C50.9175 0.147644 51.0025 0.15449 51.0826 0.181701C51.1628 0.208911 51.236 0.255742 51.2964 0.318498C51.3568 0.381254 51.4028 0.458219 51.4308 0.543323C51.4587 0.628426 51.4679 0.71934 51.4575 0.808893V15.4597V15.4489Z" fill="#183249"/>
<path d="M64.2701 0.150923C64.3516 0.148959 64.4326 0.164396 64.5085 0.196338C64.5844 0.228279 64.6537 0.276089 64.7122 0.33699C64.7707 0.396052 64.817 0.467592 64.8481 0.547008C64.8793 0.626425 64.8946 0.711959 64.8931 0.798114V23.3015C64.8949 23.3873 64.8796 23.4725 64.8485 23.5515C64.8173 23.6306 64.7708 23.7016 64.7122 23.7599C64.6541 23.8217 64.585 23.8702 64.5091 23.9027C64.4331 23.9351 64.3518 23.9507 64.2701 23.9487H59.7028C59.6207 23.951 59.539 23.9354 59.4626 23.903C59.3862 23.8705 59.3166 23.8219 59.2582 23.7599C59.1999 23.7014 59.1538 23.6303 59.1231 23.5513C59.0923 23.4723 59.0776 23.3871 59.0798 23.3015V0.8089C59.0778 0.722923 59.0927 0.637459 59.1234 0.558029C59.1541 0.4786 59.2001 0.406973 59.2582 0.347777C59.3171 0.286671 59.3868 0.238753 59.4631 0.20681C59.5394 0.174866 59.6209 0.159535 59.7028 0.161709L64.2701 0.150923Z" fill="#183249"/>
</g>
</svg>
