<svg width="55" height="52" viewBox="0 0 55 52" fill="none" xmlns="http://www.w3.org/2000/svg">
<path fill-rule="evenodd" clip-rule="evenodd" d="M28.9355 25.472L34.5407 28.0941C35.1127 28.3221 35.7987 28.2081 36.1422 27.8661C36.2528 27.7558 36.375 27.6457 36.5018 27.5317C36.7742 27.2863 37.056 27.0317 37.286 26.726C37.7437 26.27 37.858 25.586 37.5147 25.1298L34.8837 19.5436C35.7987 18.0617 36.4852 16.3516 36.943 14.6415L42.8915 12.5894C43.4632 12.3614 43.8065 11.9054 43.9208 11.2214V10.4234V9.62533C43.9208 9.05529 43.4632 8.48524 42.8915 8.25725L37.0573 6.09117C36.5995 4.38112 35.9135 2.67105 34.9983 1.189L35.5583 0C46.8397 3.40908 55 13.8037 55 26.1708C55 30.9329 53.7788 35.4025 51.6345 39.2934C51.4973 38.9726 51.0612 38.7615 50.7308 38.7615L46.0168 38.9915C45.212 37.9569 44.2923 37.0372 43.2577 36.2327L43.4875 31.5197C43.4875 31.1747 43.2577 30.715 42.9127 30.6C42.4528 30.3701 42.1077 30.2551 41.648 30.1403C41.3028 30.0253 40.8432 30.1403 40.6132 30.3702L37.5085 33.8187C36.2438 33.5887 34.8642 33.5887 33.5995 33.8187L30.4952 30.3702C30.2653 30.0253 29.8055 29.9103 29.4605 30.1403C29.3595 30.1907 29.2587 30.2189 29.1675 30.2445C29.0512 30.2774 28.9502 30.3057 28.8855 30.3702C28.6557 30.485 28.4257 30.6 28.3105 30.6C27.9658 30.715 27.7357 31.1747 27.7357 31.5197L27.9658 36.2327C26.9307 37.0372 25.896 37.9569 25.2063 38.9915L20.4923 38.7615C20.1473 38.7615 19.6875 38.9915 19.5723 39.3362C19.3425 39.796 19.2277 40.1409 19.1125 40.6007C18.9973 40.9456 19.1125 41.4053 19.3425 41.6351L22.7917 44.7388C22.5618 46.0034 22.5618 47.3828 22.7917 48.6472L19.3425 51.7509C19.1777 51.8605 19.0653 52.0227 19.0182 52.1995C7.95695 48.6356 0 38.2908 0 26.1708C0 21.9995 0.937093 18.0526 2.61068 14.5224C3.08268 16.2376 3.76912 17.9477 4.68425 19.4296L1.93888 25.1298C1.7102 25.7 1.82455 26.384 2.16757 26.726C2.27823 26.8362 2.38892 26.9583 2.50325 27.0846C2.74413 27.3502 3.00172 27.6342 3.31177 27.8661C3.76912 28.3221 4.45557 28.4361 4.91292 28.0941L10.5184 25.472C12.0056 26.384 13.7211 27.0679 15.437 27.5241L17.4963 33.4523C17.725 34.0223 18.1828 34.3643 18.8688 34.4782H19.6697H20.4703C21.0425 34.4782 21.6142 34.0223 21.8433 33.4523L23.9022 27.5241C25.8468 27.0679 27.4483 26.384 28.9355 25.472ZM35.4157 51.9044C38.3657 51.9044 40.7575 49.5457 40.7575 46.6362C40.7575 43.7266 38.3657 41.3681 35.4157 41.3681C32.4657 41.3681 30.0739 43.7266 30.0739 46.6362C30.0739 49.5457 32.4657 51.9044 35.4157 51.9044ZM27.302 10.3664C27.302 14.5069 23.9362 17.8634 19.7842 17.8634C15.6321 17.8634 12.2662 14.5069 12.2662 10.3664C12.2662 6.22594 15.6321 2.86943 19.7842 2.86943C23.9362 2.86943 27.302 6.22594 27.302 10.3664Z" fill="#183249"/>
</svg>
